<svg id="图层_1" data-name="图层 1" xmlns="http://www.w3.org/2000/svg" viewBox="0 0 527.15 179"><defs><style>.cls-1{fill:#232323;}.cls-2{fill:#fff;}.cls-3{fill:#8c9296;}.cls-4{fill:#3856d6;}</style></defs><title>LOGO+SLOGAN</title><path class="cls-1" d="M372.09,355.4v-2.12h4.12l1.29-7.18h19.3l-.24,7.18h4v2.12h-4.12l-.35,5.17h3.41v2H396q-.23,4.47-4.82,4.47h-4.47a10,10,0,0,1-.47-1.89.84.84,0,0,1-.12-.35q.95.12,4.35.12c2,.08,3.1-.71,3.18-2.35H374.68l1.17-7.18Zm1.41-6.59c-.16-.24-.39-.63-.7-1.18l-.59-.94a23,23,0,0,0,6.47-8l2.59.35c-.4.71-.83,1.42-1.3,2.12h19.89v2H378.68a42.19,42.19,0,0,1-5.18,5.65m20.24,11.76.35-5.17H378.33l-.95,5.17ZM379.5,348.1l-.82,5.18h15.41c.16-1.8.24-3.53.24-5.18Zm7.65,12.24c-1.18-1.1-2.43-2.16-3.77-3.18l1.3-1.41q2.11,1.53,4,2.94Zm.47-7.41a37.14,37.14,0,0,0-3.88-2.94l1.29-1.53c1.41.94,2.75,1.88,4,2.82Z" transform="translate(-157.85 -207.5)"/><path class="cls-1" d="M420.12,343v-2.35h24.7V343H433.65c0,3.14,0,5.5-.12,7.06h12.82v2.36H434q2,8.94,12.59,12a14.47,14.47,0,0,0-1.06,1.53,8.54,8.54,0,0,0-.47.82q-10.59-3.65-12.71-12.24-1.53,7.89-12.35,12.59a14.41,14.41,0,0,0-1.65-2.11q11.17-4.83,12.35-12.59H418.47V350.1h12.47q.24-4.11.24-7.06Z" transform="translate(-157.85 -207.5)"/><path class="cls-1" d="M465.79,344.69v-1.88h4.7v-3.88h2.24v3.88h3.88v1.88h-3.88v3.41h1.65a30.83,30.83,0,0,0,4.82-6.23l1.88,1.06a40.25,40.25,0,0,1-3.88,5.17h3.53v2h-5.41a29.23,29.23,0,0,1-3.3,2.95c.08,0,0,.07-.23.23H479v13.65h-2.12v-1.65h-7.3v1.65h-2.12V356.34c-.78.47-1.6,1-2.47,1.53a7,7,0,0,0-.47-1.06,4.32,4.32,0,0,0-.47-1.06,37,37,0,0,0,8.36-5.65h-7.89v-2h6v-3.41Zm3.76,13.65h7.3v-3.18h-7.3Zm0,4.94h7.3V360.1h-7.3Zm12.71,4V340.57h9.88v2.24L489,351.16c2.58,2.28,3.84,4.71,3.76,7.3q.12,4.82-4.12,4.94-1.41.12-2.82.12a12.86,12.86,0,0,0-.47-2.47c.78.07,1.65.11,2.59.11,1.72.08,2.55-.86,2.47-2.82q.12-3.18-3.77-6.94l3.18-8.71h-5.3v24.59Z" transform="translate(-157.85 -207.5)"/><path class="cls-1" d="M511.34,344.69v-2.12h9.06a26.69,26.69,0,0,0,1.65-3.76l2.59.35c-.24.55-.59,1.3-1.06,2.24-.24.55-.39.94-.47,1.17h15.53v2.12H521.93c-.23.39-.59.94-1.06,1.65l-1.06,1.76h15.65v14.95q.12,3.76-3.76,3.76h-4.47a3.71,3.71,0,0,0-.24-1.06,8.78,8.78,0,0,0-.23-1.17h1.64c1,.07,1.81.11,2.36.11,1.64.16,2.39-.55,2.23-2.12v-1.88H518.52v6.59h-2.35V352.57a59.76,59.76,0,0,1-4.59,4.36l-1.18-2.24a35.11,35.11,0,0,0,8.71-10Zm7.18,8.71H533v-3.3H518.52Zm0,5.29H533V355.4H518.52Z" transform="translate(-157.85 -207.5)"/><path class="cls-1" d="M558.43,364.34l-1.88-.94q1.76-3.18,2.82-5.65l1.88.71c-.94,2.19-1.88,4.16-2.82,5.88m-1.77-13.41v-2H561c-.32-.55-.79-1.34-1.42-2.36a10.76,10.76,0,0,1-.82-1.29l1.77-.94c.39.55.94,1.41,1.64,2.59l.71,1.06-1.77.94h3.77c.39-.63,1-1.61,1.76-2.94.39-.71.67-1.22.83-1.53l2,.82c-.32.55-.79,1.34-1.41,2.35a9.87,9.87,0,0,0-.83,1.3h4.24v2Zm.71,5.29v-1.88h5.76v-3.06h2.24v3.06h5.41v1.88h-5.41v7.18q.12,3.28-3.06,3.41H559.6a2.28,2.28,0,0,0-.11-.47,8.12,8.12,0,0,0-.36-1.76,18,18,0,0,0,2.36.11c1.17,0,1.72-.55,1.64-1.64v-6.83Zm.12-12.23V342.1h5.88c-.16-.39-.35-1-.59-1.76-.24-.55-.39-.94-.47-1.18l2.35-.35c.08.23.24.67.47,1.29.32.94.55,1.61.71,2h4.94V344Zm11.64,18.82-2.82-4.35,1.77-.94q1.29,1.88,2.82,4.35Zm10.12,4.24V351.87H575v.7q.22,9.42-3.53,14.48a5,5,0,0,1-.59-.36,7.61,7.61,0,0,0-1.53-.94q3.64-4.35,3.41-13.29V341.28a109.85,109.85,0,0,0,10.94-1.18l.71,2.12a94.08,94.08,0,0,1-9.41,1.06v6.47h10.11v2.12h-3.64v15.18Z" transform="translate(-157.85 -207.5)"/><path class="cls-1" d="M604,347.4V345A25.54,25.54,0,0,0,606.1,340l2.35.47q-.71,2-2,4.82h6.24q.7-2.94,1.29-6.47l2.47.35q-.59,3.06-1.29,6.12H631v2.12H614.57c-.16.55-.39,1.29-.7,2.23a15,15,0,0,0-.48,1.65h14.48v1.88a20.42,20.42,0,0,1-6.12,8.24,29,29,0,0,0,9.18,3.18,14.12,14.12,0,0,0-1.18,2.47,31.83,31.83,0,0,1-10.12-4.24,50.07,50.07,0,0,1-10.71,4.59,10.68,10.68,0,0,0-1.29-2.35,42.05,42.05,0,0,0,10-3.65,19.69,19.69,0,0,1-5.29-7.53,42.8,42.8,0,0,1-8.48,12,14.68,14.68,0,0,0-1.29-2.35,35.37,35.37,0,0,0,9.53-16.12Zm21.18,5.88H614.45a16.25,16.25,0,0,0,5.3,6.71,16.91,16.91,0,0,0,5.41-6.71m.71-8.82c-1.65-1.42-3.22-2.67-4.71-3.77l1.53-1.41q2.35,1.65,4.82,3.53Z" transform="translate(-157.85 -207.5)"/><path class="cls-1" d="M649.18,343.4v-2.12h9.89v2.12h-3.89v7.53h3.53v2.12h-3.53v7.52c1.49-.15,2.87-.35,4.12-.58a12.13,12.13,0,0,0,.12,2.23c-.47.08-1.53.24-3.18.47-3.68.55-6,.94-7.06,1.18l-.35-2.35c.39-.08,1.22-.2,2.47-.36.71-.07,1.26-.15,1.65-.23v-7.88h-3.41v-2.12H653V343.4ZM671,366.46c-2.28.08-3.37-1.14-3.29-3.65v-5.53q-1.42,5.3-9.18,10c-.16-.16-.43-.47-.82-.94l-.95-.94q5.77-3.3,7.65-6.24t2.12-8.94q0-1.05.12-3.06v-2.35h2.23c0,2.43,0,4.08-.12,4.94a30.75,30.75,0,0,1-.7,5.88h1.76v6.83c-.08,1.33.55,2,1.89,1.88h1.05c1.34.08,2.08-.47,2.24-1.65.08-.62.2-1.8.35-3.53a1.82,1.82,0,0,1,.47.12,15.09,15.09,0,0,0,1.65.59,21.09,21.09,0,0,1-.35,3.53q-.48,3.18-4.12,3.06Zm-10.82-8.83V340.22H675.3v17.3H673V342.46H662.36v15.17Z" transform="translate(-157.85 -207.5)"/><path class="cls-1" d="M366.71,240.64h42.13l-3.3,10H372.87v2.52h0v72.47h76.41a11,11,0,0,0,11-11h0V253.17h0v-2.52H424.07l3.3-10H466.7v-13h-100Zm77.72,68.05a4,4,0,0,1-4,4H388.68V292.9h55.75Zm-55.75-45.08h55.75v16.32H388.68Z" transform="translate(-157.85 -207.5)"/><path class="cls-1" d="M679.81,251.39v-25H590.45v35.94h78.4a11,11,0,0,0,11-11m-73.56-12H664v6a4,4,0,0,1-4,4H606.25Z" transform="translate(-157.85 -207.5)"/><path class="cls-1" d="M594.31,287.46h.06l-1.79,13h69.66v2.17l-.23,5.84a4,4,0,0,1-4,4H609.88v13h57a11,11,0,0,0,11-11h0l.23-14h0v-13H610.39l.87-6.82H685v-13H585.26v13h9.93Z" transform="translate(-157.85 -207.5)"/><polygon class="cls-1" points="323.02 39.55 338.83 39.55 338.83 34.32 403.14 34.32 403.14 39.55 418.95 39.55 418.95 34.32 418.96 34.32 418.96 21.36 380.16 21.36 380.16 16.97 361.8 16.97 361.8 21.36 323 21.36 323 34.32 323.02 34.32 323.02 39.55"/><path class="cls-1" d="M529.14,263.08h47.65v-13H480.86v13h28.08a88.17,88.17,0,0,1-8.6,5.22h-.1v.06a100.47,100.47,0,0,1-19.38,7.8V289.6a114.88,114.88,0,0,0,22.62-8.33H512a119,119,0,0,1-31.09,14.58v12.49c27.6-8,43-20.13,50-27.07h.49v6.44a134.57,134.57,0,0,1-50.49,26v12.36a147.46,147.46,0,0,0,50.49-23.16v8.3a3.28,3.28,0,0,1-3.26,3.28h-5.78v11.13h18.31a6.54,6.54,0,0,0,6.54-6.54V268.3H523.47c2.31-1.93,4.19-3.71,5.67-5.22" transform="translate(-157.85 -207.5)"/><path class="cls-1" d="M561.73,324h15.59a101.36,101.36,0,0,1-10.49-27.83L564.18,282l10-16.19H559.36l-10,15.61,3.78,17.48A114.36,114.36,0,0,0,561.73,324" transform="translate(-157.85 -207.5)"/><rect class="cls-2" x="0.26" y="0.26" width="178.48" height="178.48" rx="35.54"/><path class="cls-3" d="M301.05,208a35.32,35.32,0,0,1,35.27,35.28V350.7A35.32,35.32,0,0,1,301.05,386H193.65a35.32,35.32,0,0,1-35.28-35.28V243.3A35.32,35.32,0,0,1,193.65,208h107.4m0-.52H193.65a35.91,35.91,0,0,0-35.8,35.8V350.7a35.91,35.91,0,0,0,35.8,35.8h107.4a35.91,35.91,0,0,0,35.8-35.8V243.3a35.91,35.91,0,0,0-35.8-35.8Z" transform="translate(-157.85 -207.5)"/><rect class="cls-1" x="31.85" y="27.91" width="115.31" height="22.07" rx="11.03"/><path class="cls-1" d="M290.47,279.31a11.09,11.09,0,1,0-17.58,13.49,32.84,32.84,0,1,1-50.93-.05h0a11.09,11.09,0,1,0-17.68-13.35,55,55,0,1,0,86.2-.09Z" transform="translate(-157.85 -207.5)"/><circle class="cls-4" cx="89.5" cy="106.57" r="16.31"/></svg>